<svg width="142" height="24" viewBox="0 0 142 24" fill="none" xmlns="http://www.w3.org/2000/svg">
<path d="M18.4786 23V22.9384C18.4991 22.8871 18.5145 22.8101 18.5248 22.7074C18.5351 22.6047 18.5402 22.5123 18.5402 22.4302C18.5402 22.112 18.494 21.7629 18.4016 21.383C18.3195 20.9929 18.1552 20.5104 17.9088 19.9355L16.0454 15.7468C15.4705 15.7262 14.7057 15.716 13.7509 15.716C12.7961 15.716 11.7643 15.716 10.6556 15.716C9.84453 15.716 9.05914 15.716 8.29943 15.716C7.54998 15.716 6.8724 15.7262 6.26668 15.7468L4.49572 19.8123C4.34172 20.1921 4.17746 20.6079 4.00293 21.0596C3.8284 21.5114 3.74114 21.9682 3.74114 22.4302C3.74114 22.5637 3.7514 22.6766 3.77194 22.769C3.79247 22.8511 3.813 22.9076 3.83353 22.9384V23H0.692007V22.9384C0.876803 22.7433 1.1078 22.3994 1.38499 21.9066C1.66218 21.4036 1.96504 20.7773 2.29357 20.0279L11.1176 0.454928H12.3495L20.7115 19.2733C20.9066 19.7147 21.1068 20.1459 21.3121 20.5669C21.5277 20.9775 21.7279 21.3471 21.9127 21.6756C22.0975 22.0042 22.2618 22.2814 22.4055 22.5072C22.5492 22.7331 22.6468 22.8768 22.6981 22.9384V23H18.4786ZM8.49962 14.3916C9.09508 14.3916 9.70593 14.3916 10.3322 14.3916C10.9584 14.3813 11.5693 14.3762 12.1647 14.3762C12.7705 14.3659 13.3505 14.3608 13.9049 14.3608C14.4593 14.3505 14.9623 14.3403 15.4141 14.33L11.0868 4.55123L6.83646 14.3916H8.49962ZM25.0542 6.95358C25.0542 6.08093 25.044 5.32121 25.0234 4.67443C25.0029 4.01738 24.9721 3.45272 24.931 2.98047C24.89 2.49795 24.8386 2.09756 24.777 1.7793C24.7257 1.46104 24.6692 1.19411 24.6076 0.978516V0.916917C24.813 0.927183 25.0286 0.932317 25.2544 0.932317C25.4495 0.942583 25.6651 0.947716 25.9012 0.947716C26.1476 0.947716 26.3991 0.947716 26.6558 0.947716C27.0254 0.947716 27.5233 0.911784 28.1496 0.839919C28.7861 0.768054 29.6023 0.732121 30.5981 0.732121C31.5221 0.732121 32.3742 0.855318 33.1544 1.10171C33.9347 1.33784 34.6071 1.68177 35.1718 2.13349C35.7467 2.58521 36.1933 3.14473 36.5116 3.81205C36.8401 4.4691 37.0044 5.21855 37.0044 6.0604C37.0044 6.76878 36.9068 7.4053 36.7118 7.96995C36.5167 8.52434 36.2395 9.01199 35.8802 9.43292C35.5311 9.84357 35.1051 10.1926 34.602 10.4801C34.1092 10.7573 33.5651 10.978 32.9697 11.1423C33.8423 11.2757 34.6379 11.5016 35.3566 11.8199C36.0752 12.1279 36.6912 12.518 37.2046 12.9902C37.7281 13.4625 38.1285 14.0169 38.4057 14.6534C38.6932 15.2796 38.8369 15.9778 38.8369 16.7477C38.8369 18.914 38.1234 20.5412 36.6964 21.6294C35.2693 22.7074 33.1339 23.2464 30.2901 23.2464C29.9821 23.2464 29.6228 23.231 29.2121 23.2002C28.8015 23.1797 28.3806 23.154 27.9494 23.1232C27.5284 23.0924 27.1127 23.0616 26.702 23.0308C26.2913 23.0103 25.932 23 25.624 23H24.6076V22.9384C24.6692 22.7228 24.7257 22.4559 24.777 22.1376C24.8386 21.8194 24.89 21.4241 24.931 20.9518C24.9721 20.4796 25.0029 19.9201 25.0234 19.2733C25.044 18.6162 25.0542 17.8514 25.0542 16.9787V6.95358ZM30.7059 12.0817C30.0078 12.0817 29.4226 12.1073 28.9503 12.1587C28.4781 12.21 28.1136 12.2613 27.857 12.3127V16.9787C27.857 18.1799 27.8775 19.1706 27.9186 19.9509C27.9596 20.7311 28.0161 21.3676 28.088 21.8604C28.4781 21.9118 28.8682 21.958 29.2583 21.999C29.6485 22.0401 29.9616 22.0606 30.1977 22.0606C32.1175 22.0606 33.5189 21.6346 34.4018 20.7825C35.295 19.9201 35.7416 18.6008 35.7416 16.8247C35.7416 16.1266 35.6338 15.4901 35.4182 14.9152C35.2129 14.33 34.8997 13.8269 34.4788 13.406C34.0682 12.9851 33.5446 12.6617 32.9081 12.4358C32.2818 12.1997 31.5478 12.0817 30.7059 12.0817ZM27.857 10.9267C28.1444 10.9575 28.4011 10.978 28.627 10.9883C28.8528 10.9883 29.0941 10.9883 29.3507 10.9883C30.0489 10.9883 30.6854 10.8908 31.2603 10.6957C31.8352 10.4904 32.3229 10.1875 32.7233 9.78711C33.1339 9.38672 33.4522 8.8888 33.678 8.29334C33.9039 7.68763 34.0168 6.98437 34.0168 6.18359C34.0168 5.51628 33.9347 4.91056 33.7704 4.36644C33.6062 3.82232 33.3598 3.36033 33.0312 2.98047C32.713 2.59034 32.3177 2.29262 31.8455 2.08729C31.3732 1.88196 30.8342 1.7793 30.2285 1.7793C29.8384 1.7793 29.4945 1.7947 29.1967 1.8255C28.9093 1.85629 28.6629 1.89223 28.4576 1.93329C28.2214 1.97436 28.0212 2.02569 27.857 2.08729V10.9267ZM45.5666 16.9787C45.5666 17.8514 45.5768 18.6162 45.5974 19.2733C45.6282 19.9201 45.659 20.4796 45.6898 20.9518C45.7308 21.4241 45.777 21.8194 45.8283 22.1376C45.8899 22.4559 45.9515 22.7228 46.0131 22.9384V23H42.3172V22.9384C42.3788 22.7228 42.4353 22.4559 42.4866 22.1376C42.5482 21.8194 42.5944 21.4241 42.6252 20.9518C42.6663 20.4796 42.6971 19.9201 42.7176 19.2733C42.7484 18.6265 42.7638 17.8617 42.7638 16.9787V6.95358C42.7638 6.08093 42.7484 5.32121 42.7176 4.67443C42.6971 4.01738 42.6663 3.45272 42.6252 2.98047C42.5944 2.50821 42.5482 2.11296 42.4866 1.7947C42.4353 1.46617 42.3788 1.19411 42.3172 0.978516V0.916917L42.964 0.978516C43.1591 0.999048 43.3747 1.01445 43.6108 1.02471C43.8572 1.02471 44.1087 1.02471 44.3654 1.02471C44.7658 1.02471 45.3048 0.978516 45.9823 0.886118C46.6702 0.783453 47.5428 0.732121 48.6003 0.732121C49.5859 0.732121 50.4944 0.865585 51.326 1.13251C52.1679 1.39944 52.8968 1.78956 53.5128 2.30288C54.1288 2.81621 54.6061 3.44759 54.9449 4.19704C55.294 4.93622 55.4685 5.77807 55.4685 6.72258C55.4685 7.46176 55.371 8.14961 55.1759 8.78613C54.9911 9.41238 54.7242 9.98217 54.3751 10.4955C54.0364 11.0088 53.6257 11.4657 53.1432 11.8661C52.6607 12.2562 52.1217 12.5847 51.5262 12.8516L56.9315 20.4437C57.1984 20.8235 57.4448 21.152 57.6707 21.4292C57.9068 21.7064 58.1275 21.9477 58.3329 22.153C58.5485 22.3481 58.7538 22.5123 58.9488 22.6458C59.1439 22.769 59.3441 22.8665 59.5494 22.9384V23H55.0989C55.0681 22.8049 54.9655 22.5483 54.7909 22.23C54.6267 21.9015 54.4316 21.5781 54.2058 21.2598L48.7543 13.5754C48.5182 13.596 48.282 13.6165 48.0459 13.637C47.8098 13.6473 47.5685 13.6524 47.3221 13.6524C47.0347 13.6524 46.7421 13.6422 46.4443 13.6216C46.1569 13.6011 45.8643 13.5652 45.5666 13.5138V16.9787ZM45.5666 12.3127C45.8437 12.3742 46.1261 12.4204 46.4135 12.4512C46.701 12.4718 46.9782 12.482 47.2451 12.482C48.0151 12.482 48.7183 12.3691 49.3549 12.1433C49.9914 11.9071 50.5304 11.5529 50.9718 11.0807C51.4236 10.6084 51.7726 10.0232 52.019 9.32512C52.2654 8.61674 52.3886 7.79029 52.3886 6.84578C52.3886 6.0758 52.3013 5.37768 52.1268 4.75143C51.9523 4.12518 51.6905 3.59645 51.3414 3.16526C51.0026 2.72381 50.5714 2.38502 50.0478 2.14889C49.5243 1.90249 48.9134 1.7793 48.2153 1.7793C47.5069 1.7793 46.9423 1.81523 46.5213 1.88709C46.1004 1.95896 45.7821 2.03596 45.5666 2.11809V12.3127ZM71.0222 0.547326C72.7367 0.547326 74.3177 0.829652 75.7653 1.39431C77.2231 1.94869 78.4807 2.73407 79.5382 3.75045C80.5956 4.75656 81.4221 5.968 82.0175 7.38477C82.613 8.80153 82.9107 10.3672 82.9107 12.0817C82.9107 13.057 82.7978 14.0169 82.5719 14.9614C82.346 15.9059 82.0124 16.7991 81.5709 17.6409C81.1397 18.4828 80.6059 19.263 79.9694 19.9817C79.3328 20.6901 78.6039 21.306 77.7826 21.8296C76.9716 22.3429 76.0732 22.7433 75.0877 23.0308C74.1021 23.3285 73.0395 23.4774 71.8999 23.4774C70.1854 23.4774 68.5993 23.2053 67.1415 22.6612C65.6939 22.1068 64.4414 21.3266 63.3839 20.3205C62.3265 19.3144 61.5001 18.108 60.9046 16.7015C60.3091 15.2848 60.0114 13.714 60.0114 11.9893C60.0114 11.0139 60.1244 10.054 60.3502 9.10953C60.5761 8.16501 60.9046 7.2667 61.3358 6.41459C61.7772 5.56247 62.3111 4.78223 62.9374 4.07384C63.5739 3.35519 64.2977 2.73407 65.1087 2.21049C65.93 1.6869 66.8335 1.28138 67.819 0.993915C68.8149 0.696189 69.8826 0.547326 71.0222 0.547326ZM71.8999 22.0914C73.0395 22.0914 74.0816 21.8861 75.0261 21.4754C75.9706 21.0648 76.7816 20.4693 77.4592 19.6891C78.1471 18.9088 78.6809 17.9592 79.0608 16.8401C79.4406 15.7108 79.6306 14.4327 79.6306 13.0056C79.6306 11.4246 79.4458 9.96164 79.0762 8.61674C78.7168 7.26157 78.1779 6.0912 77.4592 5.10562C76.7406 4.10978 75.8422 3.33466 74.7643 2.78027C73.6966 2.21562 72.4492 1.93329 71.0222 1.93329C69.8826 1.93329 68.8405 2.13862 67.896 2.54928C66.9515 2.94967 66.1353 3.53486 65.4475 4.30484C64.7699 5.07482 64.2412 6.01933 63.8613 7.13837C63.4815 8.25741 63.2915 9.53045 63.2915 10.9575C63.2915 12.5282 63.4712 13.9963 63.8305 15.3618C64.1899 16.7169 64.7288 17.8925 65.4475 18.8883C66.1661 19.8841 67.0645 20.6695 68.1424 21.2444C69.2204 21.8091 70.4729 22.0914 71.8999 22.0914ZM87.2534 0.916917L103.115 17.7949V6.95358C103.115 6.08093 103.105 5.32121 103.084 4.67443C103.064 4.01738 103.033 3.45272 102.992 2.98047C102.951 2.49795 102.899 2.09756 102.838 1.7793C102.786 1.46104 102.73 1.19411 102.668 0.978516V0.916917H105.41V0.978516C105.348 1.19411 105.291 1.46104 105.24 1.7793C105.189 2.09756 105.143 2.49795 105.102 2.98047C105.06 3.45272 105.03 4.01738 105.009 4.67443C104.989 5.32121 104.978 6.08093 104.978 6.95358V23.308H104.439L88.5777 6.44539V16.9787C88.5777 17.8514 88.588 18.6162 88.6085 19.2733C88.6291 19.9201 88.6599 20.4796 88.7009 20.9518C88.742 21.4241 88.7882 21.8194 88.8395 22.1376C88.8909 22.4559 88.9473 22.7228 89.0089 22.9384V23H86.2678V22.9384C86.3294 22.7228 86.3859 22.4559 86.4372 22.1376C86.4988 21.8194 86.5501 21.4241 86.5912 20.9518C86.6323 20.4796 86.6631 19.9201 86.6836 19.2733C86.7041 18.6162 86.7144 17.8514 86.7144 16.9787V6.95358C86.7144 6.08093 86.7041 5.32121 86.6836 4.67443C86.6631 4.01738 86.6323 3.45272 86.5912 2.98047C86.5501 2.49795 86.4988 2.09756 86.4372 1.7793C86.3859 1.46104 86.3294 1.19411 86.2678 0.978516V0.916917H87.2534ZM109.706 0.916917C110.989 0.916917 112.262 0.911784 113.525 0.901517C114.798 0.891251 115.963 0.880984 117.021 0.870718C118.078 0.850185 118.982 0.824519 119.731 0.79372C120.481 0.762921 120.989 0.721855 121.256 0.670523L120.501 2.71867C120.162 2.62628 119.767 2.54415 119.315 2.47228C118.925 2.41068 118.448 2.35422 117.883 2.30288C117.329 2.24129 116.687 2.21049 115.958 2.21049C115.712 2.21049 115.414 2.22075 115.065 2.24129C114.726 2.25155 114.398 2.26695 114.08 2.28748C113.71 2.30802 113.335 2.32855 112.955 2.34908V10.7573C114.013 10.747 114.968 10.7162 115.82 10.6649C116.672 10.6136 117.396 10.5622 117.991 10.5109C118.689 10.4493 119.305 10.3774 119.839 10.2953L119.362 12.5282C118.653 12.4358 117.929 12.3486 117.19 12.2665C116.554 12.1946 115.861 12.133 115.111 12.0817C114.362 12.0201 113.643 11.9893 112.955 11.9893V21.6448C114.167 21.6448 115.281 21.5935 116.297 21.4908C117.313 21.3882 118.202 21.2701 118.961 21.1366C119.844 20.9929 120.65 20.8235 121.379 20.6285L120.932 23.1232C120.809 23.1129 120.624 23.1027 120.378 23.0924C120.132 23.0821 119.854 23.0719 119.546 23.0616C119.249 23.0513 118.93 23.0411 118.592 23.0308C118.263 23.0308 117.95 23.0257 117.652 23.0154C117.355 23.0154 117.088 23.0103 116.851 23C116.626 23 116.461 23 116.359 23H109.706V22.9384C109.768 22.7228 109.824 22.4559 109.875 22.1376C109.937 21.8194 109.988 21.4241 110.029 20.9518C110.071 20.4796 110.101 19.9201 110.122 19.2733C110.142 18.6162 110.153 17.8514 110.153 16.9787V6.95358C110.153 6.08093 110.142 5.32121 110.122 4.67443C110.101 4.01738 110.071 3.45272 110.029 2.98047C109.988 2.49795 109.937 2.09756 109.875 1.7793C109.824 1.46104 109.768 1.19411 109.706 0.978516V0.916917ZM130.973 2.27209C129.762 2.27209 128.668 2.32855 127.693 2.44148C126.718 2.54415 125.876 2.65708 125.167 2.78027C124.346 2.93427 123.612 3.10367 122.965 3.28846L123.412 0.79372C123.535 0.803986 123.72 0.814253 123.966 0.824519C124.213 0.834786 124.485 0.845052 124.782 0.855318C125.09 0.865585 125.409 0.875851 125.737 0.886118C126.076 0.886118 126.394 0.891251 126.692 0.901517C126.99 0.901517 127.251 0.906651 127.477 0.916917C127.713 0.916917 127.883 0.916917 127.985 0.916917H136.779C136.881 0.916917 137.046 0.916917 137.271 0.916917C137.508 0.906651 137.774 0.901517 138.072 0.901517C138.37 0.891251 138.683 0.886118 139.012 0.886118C139.35 0.875851 139.669 0.865585 139.966 0.855318C140.274 0.845052 140.552 0.834786 140.798 0.824519C141.044 0.814253 141.229 0.803986 141.352 0.79372L141.799 3.28846C141.142 3.10367 140.403 2.93427 139.581 2.78027C138.873 2.65708 138.031 2.54415 137.056 2.44148C136.081 2.32855 134.987 2.27209 133.776 2.27209V16.9787C133.776 17.8514 133.786 18.6162 133.806 19.2733C133.837 19.9201 133.868 20.4796 133.899 20.9518C133.94 21.4241 133.986 21.8194 134.037 22.1376C134.099 22.4559 134.161 22.7228 134.222 22.9384V23H130.542V22.9384C130.603 22.7228 130.66 22.4559 130.711 22.1376C130.762 21.8194 130.809 21.4241 130.85 20.9518C130.891 20.4796 130.922 19.9201 130.942 19.2733C130.963 18.6162 130.973 17.8514 130.973 16.9787V2.27209Z" fill="#EFF0F2" fill-opacity="0.9"/>
</svg>
